# xmcd
#
# Track frame offsets: 
#        150
#        10656
#        21622
#        37098
#        48352
#        63163
#        73583
#        83821
#        102354
#        117090
#        130041
#        139636
#        151449
#        177074
#        187488
#        205944
#        216355
#        227442
#        236746
#        248617
#        256673
#        266595
#        281969
#        292881
#        307217
#
# Disc length: 4268 seconds
#
# Revision: 1
# Processed by: cddbd v1.5.2PL0 Copyright (c) Steve Scherf et al.
# Submitted via: ExactAudioCopyFreeDBPlugin 1.0
#
DISCID=6f10aa19
DTITLE=Various Artist - Hard to Handle:  Black America Sings Otis Red
DTITLE=ding
DYEAR=2012
DGENRE=Soul
TTITLE0=Albert Washington and The Kings - These Arms of Mine
TTITLE1=Judy Clay - Sister Pitiful
TTITLE2=William Bell - I've Been Loving You Too Long (To Stop Now)
TTITLE3=Maxine Brown - Baby Cakes
TTITLE4=King Floyd - Think About It
TTITLE5=Mickey Murray - Shout Bamalama
TTITLE6=Irma Thomas - Security
TTITLE7=Percy Sledge - I've Got Dreams to Remember
TTITLE8=Buddy Miles - Give Away None of My Love
TTITLE9=Mitty Collier - I'm Missing You
TTITLE10=James Carr - I Can't Turn You Loose
TTITLE11=Bettye Swann - Chained and Bound
TTITLE12=Clarence Carter - Just One More Day
TTITLE13=Arthur Conley - Wholesale Love
TTITLE14=Tina Britt - Hawg for You
TTITLE15=Otis Redding - Loving By the Pound (take 2)
TTITLE16=Patti Drew - Hard to Handle
TTITLE17=Arthur Conley - A Year, a Month and a Day
TTITLE18=Lou Rawls - Fa-Fa-Fa-Fa-Fa-Fa (Sad Song)
TTITLE19=Jackie Hairston - Monkey on My Back
TTITLE20=James and Bobby Purify - Keep Pushing Me
TTITLE21=Donald Height - Good to Me
TTITLE22=Aretha Frankliin - Respect
TTITLE23=The Staple Singers - (Sittin' on The) Dock of the Bay
TTITLE24=Etta James - I Got the Will
EXTD=
EXTT0=
EXTT1=
EXTT2=
EXTT3=
EXTT4=
EXTT5=
EXTT6=
EXTT7=
EXTT8=
EXTT9=
EXTT10=
EXTT11=
EXTT12=
EXTT13=
EXTT14=
EXTT15=
EXTT16=
EXTT17=
EXTT18=
EXTT19=
EXTT20=
EXTT21=
EXTT22=
EXTT23=
EXTT24=
PLAYORDER=
